<?xml version="1.0" encoding="utf-8"?>
<!-- Generator: Adobe Illustrator 19.2.1, SVG Export Plug-In . SVG Version: 6.00 Build 0)  -->
<svg version="1.1" id="Layer_1" xmlns="http://www.w3.org/2000/svg" xmlns:xlink="http://www.w3.org/1999/xlink" x="0px" y="0px"
	 viewBox="0 0 199.7 178.3" style="enable-background:new 0 0 199.7 178.3;" xml:space="preserve">
<style type="text/css">
	.st0{fill:#231F20;}
	.st1{fill:#FFFFFF;}
	.st2{fill:#8E182A;}
	.st3{fill:#8F0327;}
</style>
<g>
	<g>
		<g>
			<circle class="st0" cx="67.9" cy="67.6" r="19"/>
			<circle class="st0" cx="132.5" cy="67.6" r="19"/>
			<circle class="st1" cx="134.5" cy="60.6" r="4.1"/>
			<circle class="st1" cx="66" cy="60.6" r="4.1"/>
			<path class="st1" d="M143.5,69.9c-1.1-0.7-2.5,0-2.9,1.2c-0.7,2-2.9,6.3-9.2,6.3c-3.4,0-6.4-1.9-8.3-4.8
				c-0.9-1.4-3.1-0.8-3.2,0.9c-0.1,1.1,0.4,2.6,2.1,4.5c4.8,5.4,15,4.9,20,0C145.4,74.5,145.3,71,143.5,69.9z"/>
			<path class="st1" d="M79,69.9c-1.1-0.7-2.5,0-2.9,1.2c-0.7,2-2.9,6.3-9.2,6.3c-3.4,0-6.4-1.9-8.3-4.8c-0.9-1.4-3.1-0.8-3.2,0.9
				c-0.1,1.1,0.4,2.6,2.1,4.5c4.8,5.4,15,4.9,20,0C80.9,74.5,80.7,71,79,69.9z"/>
		</g>
		<g>
			<path class="st2" d="M176.8,65c0-0.8-0.4-1.5-1.1-2l-2.8-2c1.9-5.9,3.4-14.6,3.5-15c0.2-1.4-0.7-2.7-2.1-3l-5.7-1.1
				c0.8-2.6,0.8-4.6,0.8-4.8c0-0.1,0-0.3,0-0.4l-1-5.8l7.8-21.3l0,0v0c0.1-0.3,0.2-0.7,0.2-1.1c0,0,0-0.1,0-0.1c0-0.1,0-0.3-0.1-0.4
				c0,0,0-0.1,0-0.1c-0.1-0.2-0.1-0.3-0.2-0.5c-0.6-1-1.8-1.5-2.9-1.2L98.2,25.9L26.5,9.3c-1.1-0.3-2.3,0.3-2.9,1.3
				c-0.1,0.2-0.1,0.3-0.2,0.5c0,0,0,0.1,0,0.1c0,0.1-0.1,0.3-0.1,0.4c0,0,0,0.1,0,0.1c0,0.4,0.1,0.7,0.2,1.1c0,0,0,0,0,0l-0.1,0
				L31.3,31l-1,5.8c0,0.1,0,0.3,0,0.4c0,0.1,0,2.2,0.8,4.8l-5.7,1.1c-1.4,0.3-2.3,1.6-2.1,3c0.1,0.4,1.5,9.1,3.5,15l-2.8,2
				c-0.7,0.5-1.1,1.2-1.1,2c0,0.3-0.3,7.9,5,17.8c5.4,10.1,6.1,14.8,6.1,18.1c0,0.7,0.3,1.5,0.9,1.9c0.5,0.4,1.1,0.6,1.7,0.6
				c0.1,0,0.2,0,0.3,0c10.4-1.4,34.6-4.7,37.5-6c5.8-1.3,10.9-4.2,15-7.2c1.3,3,4,8.3,8.6,13.3c0.5,0.5,1.2,0.8,1.9,0.8
				c0.7,0,1.4-0.3,1.9-0.8c4.7-5,7.4-10.2,8.6-13.3c4.1,3,9.2,5.8,15,7.2c2.9,1.3,27.1,4.6,37.5,6c0.1,0,0.2,0,0.3,0
				c0.6,0,1.2-0.2,1.7-0.6c0.6-0.5,0.9-1.2,0.9-1.9c0-3.3,0.7-8,6.1-18.1C177.1,73,176.8,65.3,176.8,65z M97.6,31
				c0.4,0.1,0.8,0.1,1.2,0l66-17.3c-11,10.5-31.8,30.1-40.8,35.9c-15,9.6-21.4,21-23.4,25.2H99c-2-4.2-8.5-15.6-23.4-25.2
				c-8.9-5.7-29.3-23.3-40.4-33L97.6,31z M38.9,97.9c-0.6-4.8-2.6-10.2-6.5-17.6C29,74,28.2,68.7,28,66.4l3.2-2.3
				c1-0.7,1.3-1.9,0.9-3c-1.4-3.7-2.7-10-3.4-13.4l6.3-1.2c0.8-0.2,1.5-0.7,1.9-1.4c0.4-0.7,0.3-1.6,0-2.3c-1.2-2.3-1.4-4.7-1.4-5.3
				l1.1-6.2c0.1-0.5,0-1-0.2-1.5l-3.6-8.4c0,0,0,0,0,0c0.5,0.4,1,0.9,1.5,1.3c0,0,0.1,0.1,0.1,0.1c0.5,0.4,1,0.9,1.5,1.4
				c0.1,0.1,0.1,0.1,0.2,0.2c0.5,0.5,1.1,0.9,1.6,1.4c0.1,0.1,0.1,0.1,0.2,0.2c0.5,0.5,1.1,0.9,1.6,1.4c0.1,0.1,0.1,0.1,0.2,0.2
				c0.6,0.5,1.2,1,1.8,1.5c0,0,0.1,0.1,0.1,0.1c0.6,0.5,1.2,1.1,1.9,1.6c0,0,0.1,0,0.1,0.1c1.3,1.1,2.7,2.3,4,3.4c0,0,0,0,0,0
				c-9.1,9.5-13.6,21.3-12.5,33.3c1,10.7,6.2,20,14.4,25.7l0.2,0.1c1.7,1,3.3,1.8,4.9,2.4C49.7,96.5,44.3,97.2,38.9,97.9z
				 M83.3,88.2c-10.3,6.3-20.7,6.5-30.9,0.7c-6.9-4.8-11.3-12.7-12.1-21.8c-1-10.6,3.1-21,11.3-29.5c0,0,0,0,0,0
				c0.4,0.4,0.9,0.7,1.3,1.1c0.1,0.1,0.3,0.2,0.4,0.4c0.4,0.3,0.8,0.7,1.2,1c0.2,0.1,0.3,0.3,0.5,0.4c0.7,0.6,1.4,1.2,2.1,1.7
				c0.2,0.2,0.4,0.3,0.6,0.5c0.3,0.3,0.6,0.5,0.9,0.8c0.3,0.2,0.5,0.4,0.8,0.7c0.3,0.2,0.6,0.5,0.9,0.7c0.3,0.2,0.6,0.5,0.9,0.7
				c0.3,0.2,0.5,0.4,0.8,0.6c0.5,0.4,1,0.8,1.5,1.2c0.2,0.2,0.4,0.3,0.6,0.5c0.3,0.3,0.7,0.5,1,0.8c0.2,0.2,0.4,0.3,0.6,0.5
				c0.3,0.3,0.7,0.5,1,0.8c0.2,0.1,0.3,0.2,0.5,0.4c0.5,0.4,0.9,0.7,1.4,1c0.1,0.1,0.2,0.1,0.3,0.2c0.4,0.3,0.7,0.5,1.1,0.8
				c0.1,0.1,0.3,0.2,0.4,0.3c0.3,0.2,0.6,0.4,0.9,0.6c0.1,0.1,0.3,0.2,0.4,0.3c0.4,0.3,0.8,0.5,1.2,0.8c0.5,0.3,1,0.7,1.5,1
				c0.2,0.1,0.3,0.2,0.5,0.3c0.3,0.2,0.6,0.4,1,0.7c0.2,0.1,0.4,0.3,0.5,0.4c0.3,0.2,0.6,0.4,0.8,0.6c0.2,0.1,0.4,0.3,0.6,0.4
				c0.3,0.2,0.5,0.4,0.8,0.6c0.2,0.1,0.4,0.3,0.5,0.4c0.2,0.2,0.5,0.4,0.7,0.6c0.2,0.2,0.4,0.3,0.5,0.5c0.2,0.2,0.4,0.4,0.7,0.6
				c0.2,0.1,0.3,0.3,0.5,0.4c0.2,0.2,0.4,0.4,0.6,0.6c0.2,0.1,0.3,0.3,0.5,0.4c0.2,0.2,0.4,0.4,0.6,0.6c0.2,0.1,0.3,0.3,0.5,0.4
				c0.2,0.2,0.4,0.4,0.6,0.6c0.1,0.1,0.3,0.3,0.4,0.4c0.2,0.2,0.4,0.4,0.6,0.6c0.1,0.1,0.3,0.3,0.4,0.4c0.2,0.2,0.4,0.4,0.5,0.6
				c0.1,0.1,0.2,0.3,0.4,0.4c0.2,0.2,0.4,0.4,0.5,0.6c0.1,0.1,0.2,0.2,0.3,0.4c0.2,0.2,0.4,0.4,0.5,0.6c0.1,0.1,0.2,0.2,0.3,0.3
				c0.2,0.2,0.4,0.5,0.6,0.7c0.1,0.1,0.1,0.2,0.2,0.2c0.2,0.3,0.5,0.6,0.7,0.9c0,0,0,0,0,0c0.5,0.6,0.9,1.2,1.3,1.8
				c0,0,0.1,0.1,0.1,0.1c0.2,0.2,0.3,0.5,0.5,0.7c0,0.1,0.1,0.1,0.1,0.2c0.1,0.2,0.3,0.4,0.4,0.6c0.1,0.1,0.1,0.2,0.1,0.2
				c0.1,0.2,0.2,0.3,0.3,0.5c0,0.1,0.1,0.2,0.1,0.2c0.1,0.2,0.2,0.3,0.3,0.5c0,0.1,0.1,0.2,0.1,0.2c0.1,0.1,0.2,0.3,0.2,0.4
				c0,0.1,0.1,0.1,0.1,0.2c0.1,0.1,0.2,0.3,0.2,0.4c0,0.1,0.1,0.1,0.1,0.2c0.1,0.1,0.1,0.2,0.2,0.4c0,0.1,0.1,0.1,0.1,0.2
				c0.1,0.1,0.1,0.2,0.2,0.3c0,0.1,0.1,0.1,0.1,0.2c0.1,0.1,0.1,0.2,0.1,0.3c0,0,0,0.1,0.1,0.1c0,0.1,0.1,0.2,0.1,0.2
				c0,0,0,0.1,0.1,0.1c0,0.1,0.1,0.1,0.1,0.2c0,0,0,0.1,0.1,0.1c0,0.1,0.1,0.1,0.1,0.2c0,0,0,0.1,0,0.1c0,0,0,0.1,0,0.1
				c0,0,0,0.1,0,0.1C93,80.4,88.9,84.8,83.3,88.2z M99.8,97.9c-3.8-4.7-5.7-9.3-6.3-11c3.2-2.9,5.4-5.5,6.3-6.7
				c0.9,1.1,3.1,3.8,6.3,6.7C105.5,88.6,103.6,93.2,99.8,97.9z M116.5,88.3c-5.6-3.4-9.7-7.8-11.7-10.1c0,0,0,0,0,0
				c0,0,0-0.1,0.1-0.1c0,0,0-0.1,0-0.1c0,0,0-0.1,0.1-0.2c0,0,0-0.1,0.1-0.1c0-0.1,0.1-0.1,0.1-0.2c0,0,0-0.1,0.1-0.2
				c0-0.1,0.1-0.1,0.1-0.2c0-0.1,0.1-0.1,0.1-0.2c0-0.1,0.1-0.2,0.1-0.3c0-0.1,0.1-0.1,0.1-0.2c0-0.1,0.1-0.2,0.1-0.3
				c0-0.1,0.1-0.1,0.1-0.2c0.1-0.1,0.1-0.2,0.2-0.3c0-0.1,0.1-0.2,0.1-0.2c0.1-0.1,0.1-0.2,0.2-0.4c0-0.1,0.1-0.2,0.2-0.3
				c0.1-0.1,0.1-0.2,0.2-0.4c0.1-0.1,0.1-0.2,0.2-0.3c0.1-0.1,0.2-0.3,0.2-0.4c0.1-0.1,0.1-0.2,0.2-0.3c0.1-0.1,0.2-0.3,0.3-0.4
				c0.1-0.1,0.1-0.2,0.2-0.3c0.1-0.2,0.2-0.3,0.3-0.5c0.1-0.1,0.1-0.2,0.2-0.3c0.1-0.2,0.2-0.3,0.4-0.5c0.1-0.1,0.1-0.2,0.2-0.3
				c0.1-0.2,0.3-0.4,0.4-0.6c0.1-0.1,0.1-0.2,0.2-0.3c0.2-0.3,0.4-0.6,0.6-0.9c0,0,0,0,0,0c0.2-0.3,0.4-0.6,0.7-0.9
				c0.1-0.1,0.2-0.2,0.2-0.3c0.2-0.2,0.3-0.4,0.5-0.6c0.1-0.1,0.2-0.2,0.3-0.4c0.2-0.2,0.3-0.4,0.5-0.6c0.1-0.1,0.2-0.3,0.3-0.4
				c0.2-0.2,0.3-0.4,0.5-0.6c0.1-0.1,0.3-0.3,0.4-0.4c0.2-0.2,0.3-0.4,0.5-0.6c0.1-0.1,0.3-0.3,0.4-0.4c0.2-0.2,0.4-0.4,0.5-0.6
				c0.1-0.1,0.3-0.3,0.4-0.4c0.2-0.2,0.4-0.4,0.6-0.6c0.2-0.2,0.3-0.3,0.5-0.5c0.2-0.2,0.4-0.4,0.6-0.6c0.2-0.2,0.3-0.3,0.5-0.5
				c0.2-0.2,0.4-0.4,0.6-0.6c0.2-0.2,0.3-0.3,0.5-0.5c0.2-0.2,0.4-0.4,0.7-0.6c0.2-0.2,0.4-0.3,0.5-0.5c0.2-0.2,0.5-0.4,0.7-0.6
				c0.2-0.2,0.4-0.3,0.6-0.5c0.2-0.2,0.5-0.4,0.7-0.6c0.2-0.1,0.4-0.3,0.6-0.4c0.3-0.2,0.5-0.4,0.8-0.6c0.2-0.1,0.4-0.3,0.6-0.4
				c0.3-0.2,0.6-0.4,1-0.7c0.2-0.1,0.3-0.2,0.5-0.3c0.5-0.3,1-0.7,1.5-1c0.4-0.2,0.8-0.5,1.2-0.8c0.1-0.1,0.3-0.2,0.4-0.3
				c0.3-0.2,0.6-0.4,0.9-0.6c0.2-0.1,0.3-0.2,0.5-0.3c0.3-0.2,0.6-0.5,1-0.7c0.1-0.1,0.3-0.2,0.4-0.3c0.5-0.3,0.9-0.7,1.4-1.1
				c0.1-0.1,0.3-0.2,0.4-0.3c0.4-0.3,0.7-0.6,1.1-0.9c0.2-0.2,0.4-0.4,0.7-0.5c0.3-0.2,0.6-0.5,0.9-0.7c0.2-0.2,0.5-0.4,0.7-0.6
				c0.3-0.2,0.6-0.5,0.9-0.7c0.4-0.4,0.9-0.7,1.3-1.1c0.3-0.3,0.6-0.5,0.9-0.8c0.3-0.3,0.7-0.6,1-0.9c0.2-0.2,0.4-0.4,0.6-0.5
				c0.4-0.3,0.8-0.7,1.1-1c0.2-0.1,0.3-0.3,0.5-0.4c0.4-0.4,0.8-0.7,1.3-1.1c0,0,0,0,0.1,0c1.5-1.4,3.1-2.8,4.7-4.2c0,0,0,0,0,0
				l-1.2,1.2c8.6,8.5,12.7,19.2,11.8,29.9c-0.8,9.1-5.2,17.1-12.1,21.8C137.1,94.8,126.7,94.6,116.5,88.3z M167.3,80.3
				c-4,7.4-6,12.8-6.5,17.6c-5.4-0.7-10.9-1.5-15.8-2.2c1.6-0.7,3.3-1.5,4.9-2.4l0.2-0.1c8.2-5.7,13.4-15,14.4-25.7
				c1.1-12.3-3.6-24.3-13.1-33.9c2.2-2,4.4-4,6.5-6c0.1-0.1,0.1-0.1,0.2-0.2c0.6-0.6,1.2-1.1,1.8-1.7c0.1-0.1,0.2-0.2,0.3-0.3
				c0.6-0.5,1.1-1,1.7-1.6c0.1-0.1,0.2-0.2,0.4-0.3c0.5-0.5,1-1,1.5-1.4c0.1-0.1,0.2-0.2,0.4-0.3c0.5-0.5,1-0.9,1.5-1.4
				c0.1-0.1,0.2-0.2,0.3-0.3c0.5-0.5,1.1-1,1.6-1.5c0,0,0,0,0,0l-4.2,11.3c-0.2,0.4-0.2,0.9-0.1,1.3l1.1,6.2c0,0.7-0.2,3-1.4,5.3
				c-0.4,0.7-0.4,1.6,0,2.3c0.4,0.7,1,1.3,1.9,1.4l6.3,1.2c-0.7,3.5-2,9.7-3.4,13.4c-0.4,1.1-0.1,2.4,0.9,3l3.2,2.3
				C171.5,68.7,170.7,74,167.3,80.3z"/>
			<path class="st2" d="M168.1,107.6h-52.6c-0.6,0-1.2,0.2-1.7,0.6l-14.1,11.7l-14.1-11.7c-0.5-0.4-1-0.6-1.7-0.6H31.5
				c-1.4,0-2.6,1.2-2.6,2.6s1.2,2.6,2.6,2.6h51.6l15,12.5c0.5,0.4,1.1,0.6,1.7,0.6c0.6,0,1.2-0.2,1.7-0.6l15-12.5h51.6
				c1.4,0,2.6-1.2,2.6-2.6S169.5,107.6,168.1,107.6z"/>
		</g>
	</g>
	<g>
		<g>
			<path class="st3" d="M38.7,137.4l5.3,13.5l5.4-14.4h6.9l-9.8,25.2h-4.4l-5.3-13.9l-5.4,13.9H27l-9.9-25.2h7l5.4,14.4l5.3-13.5
				L38.7,137.4z"/>
			<path class="st3" d="M73.3,161.8c-2.5,5.9-6.6,9.4-12,10.4l-2.1-5.9c3.9-0.8,6.8-3.3,8.3-7.4l-9.2-22.3h7.2L71,150l5.5-13.5h7.2
				L73.3,161.8z"/>
			<path class="st3" d="M106.7,161.6H86.1v-6.5l12.2-12.7H85.9v-5.9h20.3v5.9l-11.7,12.7h12.2V161.6z"/>
			<path class="st3" d="M134,161.6h-5.5v-2.2c-2.1,1.6-4.6,2.6-7.4,2.6c-7.1,0-13-5.8-13-13c0-7.1,5.8-12.9,13-12.9
				c2.8,0,5.3,1,7.4,2.6v-2.2h5.6V161.6z M127.5,149c0-3.5-2.8-6.3-6.3-6.3c-3.5,0-6.3,2.8-6.3,6.3c0,3.6,2.8,6.4,6.3,6.4
				C124.7,155.5,127.5,152.6,127.5,149z"/>
			<path class="st3" d="M155.5,138v-11.6h6.6v35.2h-5.5v-2.2c-2,1.6-4.7,2.6-7.4,2.6c-7.2,0-13-5.8-13-13c0-7.1,5.8-13,13-13
				C151.5,136.1,153.8,136.8,155.5,138z M155.6,149.1c0-3.5-2.9-6.3-6.3-6.3c-3.5,0-6.3,2.9-6.3,6.3c0,3.5,2.9,6.3,6.3,6.3
				C152.7,155.4,155.6,152.5,155.6,149.1z"/>
			<path class="st3" d="M181,138.4l-2.8,4.7c-1.4-0.7-3-1.6-4.5-1.6c-1.4,0-2.4,0.7-2.4,1.7c0,1.2,1.4,1.6,3.9,2.6
				c3.9,1.4,7.3,4.1,7.3,8.3c0,4.3-3.6,8.1-9.2,8.1c-3.7,0-6.7-1.6-8.7-2.8l2.5-5.2c1.3,0.8,4.2,1.9,6.1,1.9c1.7,0,2.5-1,2.5-1.9
				c0-1.2-1.2-1.9-4.3-3.2c-2.1-0.9-6.5-2.7-6.5-7.5c0-4.4,3.8-7.3,8.6-7.3C176.1,136.1,178.5,137,181,138.4z"/>
		</g>
	</g>
</g>
</svg>
